<?xml version="1.0" standalone="no"?>
<!DOCTYPE svg PUBLIC "-//W3C//DTD SVG 20010904//EN"
 "http://www.w3.org/TR/2001/REC-SVG-20010904/DTD/svg10.dtd">
<svg version="1.0" xmlns="http://www.w3.org/2000/svg"
 width="1696.000000pt" height="1200.000000pt" viewBox="0 0 1696.000000 1200.000000"
 preserveAspectRatio="xMidYMid meet">

<g transform="translate(0.000000,1200.000000) scale(0.100000,-0.100000)"
fill="#000000" stroke="none">
<path d="M4685 8308 c-2090 -1259 -3821 -2302 -3847 -2316 -26 -15 -48 -30
-48 -33 0 -4 26 -22 58 -41 31 -19 1762 -1062 3846 -2317 3158 -1902 3792
-2280 3801 -2268 6 8 118 197 250 421 132 223 243 406 246 406 4 0 9 -8 12
-17 6 -21 366 -815 372 -821 2 -2 617 432 1367 964 3467 2462 5096 3619 5131
3644 l37 27 -172 123 c-412 293 -5542 3931 -5913 4193 -225 159 -420 299 -432
310 -13 11 -25 19 -27 16 -2 -2 -84 -182 -181 -399 -97 -217 -182 -405 -189
-418 -11 -22 -29 5 -254 385 -133 224 -245 413 -249 419 -5 7 -1348 -796
-3808 -2278z m-3385 -2379 c-13 -23 -1 -44 31 -54 15 -5 19 -16 19 -50 0 -40
2 -44 30 -50 20 -4 36 -17 47 -38 19 -38 30 -46 63 -47 17 -1 34 -14 55 -43
23 -31 40 -43 68 -49 25 -5 63 -29 109 -68 57 -47 79 -60 106 -60 23 0 52 -13
95 -44 34 -24 100 -67 147 -96 138 -86 5931 -3575 6022 -3626 46 -26 115 -60
153 -75 51 -20 71 -33 73 -48 2 -11 12 -21 25 -23 17 -2 34 -26 70 -101 27
-54 47 -100 45 -102 -2 -1 -1254 751 -2783 1672 -1529 921 -3241 1951 -3805
2290 -564 339 -1029 620 -1034 625 -6 4 99 8 232 8 242 0 243 0 232 -21z
m14564 13 c-5 -5 -227 -163 -494 -352 -267 -189 -1259 -893 -2205 -1565 -2431
-1726 -2446 -1737 -2450 -1733 -7 7 10 24 37 35 16 7 40 37 63 77 41 73 42 75
105 97 39 13 51 25 91 90 33 54 56 79 82 91 28 14 47 36 79 93 37 64 49 77 85
91 37 14 49 28 89 96 l47 79 111 56 c311 156 739 441 1831 1218 605 431 793
579 975 772 164 173 233 301 234 431 l1 72 73 0 c82 0 85 4 52 78 l-19 42 79
0 c44 0 80 3 80 8 0 4 -9 22 -20 40 l-20 32 80 0 c73 0 97 9 70 25 -26 16 -3
25 65 25 41 0 75 3 75 6 0 3 -4 13 -10 23 -8 17 -3 19 61 23 77 6 88 11 70 32
-10 12 -6 15 26 19 77 8 667 7 657 -1z"/>
</g>
</svg>
